<svg xmlns="http://www.w3.org/2000/svg" width="12" height="13" viewBox="0 0 12 13" fill="none">
  <g opacity="0.8">
    <path d="M6.00034 8.39825C6.82888 8.39825 7.50055 7.72659 7.50055 6.89804C7.50055 6.0695 6.82888 5.39783 6.00034 5.39783C5.17179 5.39783 4.50012 6.0695 4.50012 6.89804C4.50012 7.72659 5.17179 8.39825 6.00034 8.39825Z" fill="white"/>
    <path d="M9.25407 4.20679C8.22938 3.50414 7.13274 3.14789 5.99485 3.14789C4.97086 3.14789 3.97266 3.45258 3.02789 4.04976C2.07516 4.65328 1.14118 5.74945 0.375473 6.89789C0.994692 7.92914 1.84172 8.98945 2.72391 9.59742C3.73594 10.2945 4.83633 10.6479 5.99485 10.6479C7.14329 10.6479 8.24133 10.2947 9.25969 9.59812C10.1562 8.98383 11.0093 7.92492 11.6255 6.89789C11.0072 5.88 10.1513 4.82226 9.25407 4.20679ZM6.00047 9.14789C5.55547 9.14789 5.12045 9.01593 4.75044 8.7687C4.38043 8.52146 4.09204 8.17006 3.92174 7.75893C3.75145 7.34779 3.70689 6.89539 3.79371 6.45894C3.88052 6.02248 4.09482 5.62157 4.40948 5.3069C4.72415 4.99223 5.12506 4.77794 5.56152 4.69112C5.99798 4.6043 6.45038 4.64886 6.86151 4.81916C7.27264 4.98946 7.62405 5.27784 7.87128 5.64786C8.11851 6.01787 8.25047 6.45288 8.25047 6.89789C8.24979 7.49442 8.01252 8.06632 7.59071 8.48813C7.1689 8.90993 6.597 9.14721 6.00047 9.14789Z" fill="white"/>
  </g>
</svg>