<svg xmlns="http://www.w3.org/2000/svg" width="17" height="17" viewBox="0 0 17 17" fill="none">
<g id="logo/google">
<path id="Vector" d="M14.7895 7.27407L14.7189 6.97432H8.2037V9.73179H12.0964C11.6923 11.651 9.81687 12.6612 8.28497 12.6612C7.17035 12.6612 5.99541 12.1923 5.21774 11.4387C4.80744 11.0348 4.48085 10.5539 4.25665 10.0235C4.03246 9.49318 3.91507 8.92382 3.91121 8.34805C3.91121 7.18655 4.4332 6.02474 5.19274 5.26051C5.95228 4.49628 7.0994 4.06869 8.23996 4.06869C9.54618 4.06869 10.4823 4.76227 10.8324 5.07859L12.7919 3.12942C12.2171 2.62431 10.638 1.35153 8.17682 1.35153C6.27797 1.35153 4.45726 2.07888 3.12635 3.40542C1.81294 4.71164 1.1331 6.60049 1.1331 8.35306C1.1331 10.1056 1.77637 11.9001 3.04914 13.2166C4.40913 14.6207 6.33517 15.3546 8.31842 15.3546C10.1229 15.3546 11.8332 14.6476 13.0523 13.3648C14.2506 12.102 14.8705 10.3547 14.8705 8.52309C14.8705 7.75199 14.793 7.29408 14.7895 7.27407Z" fill="black"/>
</g>
</svg>