<svg xmlns="http://www.w3.org/2000/svg" width="66" height="18" viewBox="0 0 66 18" fill="none">
  <path d="M53.9427 2.74487H51.0587V16.4682H53.9427V2.74487Z" fill="white" fill-opacity="0.85"/>
  <path d="M34.3073 6.8431C33.6481 6.521 32.9215 6.3562 32.1874 6.37118C31.3334 6.37118 30.5768 6.55095 29.9101 6.91051C29.5281 7.11277 29.1835 7.38245 28.8914 7.70454V6.521H26.1347V16.4764H29.0262V11.5549C29.0262 10.9406 29.1311 10.4312 29.3333 10.0417C29.5206 9.66716 29.8127 9.36003 30.1873 9.16527C30.5693 8.9705 30.9888 8.87312 31.4158 8.88061C32.06 8.88061 32.5544 9.06789 32.9065 9.45741C33.2585 9.83945 33.4308 10.4312 33.4308 11.2328V16.4764H36.3148V10.7758C36.3148 9.76454 36.1351 8.93305 35.7755 8.28883C35.4459 7.6671 34.929 7.16521 34.3073 6.8431Z" fill="white" fill-opacity="0.85"/>
  <path d="M22.6366 7.44717C21.7976 6.73554 20.6215 6.37598 19.1009 6.37598C18.3143 6.37598 17.5278 6.48085 16.7712 6.69059C16.0746 6.87038 15.4079 7.17001 14.8086 7.58201L15.8498 9.59705C16.2394 9.29741 16.6813 9.06519 17.1533 8.92287C17.6551 8.75807 18.187 8.67567 18.7188 8.67567C19.4979 8.67567 20.0747 8.84796 20.4492 9.19254C20.8238 9.53712 21.0111 10.0165 21.0111 10.6308H18.7188C17.7076 10.6308 16.8836 10.7581 16.2543 11.0128C15.6251 11.2675 15.1682 11.6196 14.876 12.0616C14.2917 13.0129 14.2992 14.2039 14.8835 15.1478C15.1981 15.6197 15.6401 15.9943 16.157 16.2265C16.7113 16.4887 17.378 16.6235 18.157 16.6235C19.0335 16.6235 19.7526 16.4587 20.3069 16.1216C20.674 15.9044 20.9736 15.5973 21.1908 15.2377V16.4737H23.8951V10.7956C23.8951 9.27494 23.4756 8.15879 22.6366 7.44717ZM20.1796 14.3313C19.79 14.5635 19.3406 14.6834 18.8836 14.6759C18.3818 14.6759 17.9773 14.571 17.6926 14.3538C17.4079 14.1515 17.2431 13.8219 17.2581 13.4773C17.2506 13.1552 17.393 12.8481 17.6402 12.6458C17.8949 12.4211 18.3593 12.3088 19.0335 12.3088H21.0111V13.3275C20.8612 13.747 20.5616 14.0991 20.1796 14.3313Z" fill="white" fill-opacity="0.85"/>
  <path d="M45.8799 7.56152C45.6477 7.30683 45.393 7.09708 45.1008 6.92479C44.4716 6.55774 43.7375 6.37047 42.8985 6.37047C42.0146 6.35549 41.1382 6.57272 40.3666 6.9997C39.6175 7.4117 39.0033 8.02594 38.5838 8.77503C38.1493 9.5391 37.9246 10.4455 37.9246 11.4942C37.9246 12.528 38.1418 13.4269 38.5838 14.1909C39.0033 14.94 39.6175 15.5618 40.3666 15.9813C41.1382 16.4157 42.0146 16.633 42.8985 16.618C43.775 16.618 44.524 16.4307 45.1458 16.0637C45.4754 15.8689 45.76 15.6217 46.0072 15.3221V16.4757H48.7639V2.74487H45.8799V7.56152ZM45.5877 12.9699C45.378 13.367 45.0559 13.6965 44.6739 13.9213C44.2843 14.146 43.8499 14.2584 43.4004 14.2509C42.9435 14.2584 42.5015 14.146 42.1045 13.9138C41.715 13.6891 41.4003 13.3595 41.1906 12.9624C40.9659 12.5504 40.846 12.056 40.846 11.4942C40.846 10.9174 40.9584 10.423 41.1906 10.011C41.4078 9.6215 41.7224 9.2919 42.1045 9.06717C42.5015 8.84245 42.9435 8.73008 43.4004 8.73758C43.8499 8.73008 44.2843 8.84994 44.6739 9.06717C45.0559 9.2919 45.378 9.6215 45.5877 10.011C45.8125 10.4155 45.9323 10.9099 45.9323 11.4942C45.9248 12.0635 45.8125 12.5579 45.5877 12.9699Z" fill="white" fill-opacity="0.85"/>
  <path d="M65.3251 8.76803C64.8832 8.01145 64.239 7.39722 63.4674 6.99271C62.6509 6.57322 61.7445 6.35598 60.8306 6.37097C59.8193 6.37097 58.9129 6.5882 58.1114 7.03016C57.3249 7.44965 56.6732 8.07887 56.2162 8.84294C55.7518 9.6145 55.5196 10.4984 55.5196 11.4947C55.5196 12.4835 55.7518 13.3599 56.2237 14.1315C56.7031 14.9106 57.3923 15.5473 58.2088 15.9518C59.0628 16.3938 60.059 16.6185 61.1977 16.6185C62.0966 16.6185 62.8906 16.4762 63.5798 16.199C64.239 15.9443 64.8307 15.5323 65.3027 15.0079L63.767 13.345C63.4524 13.6521 63.0779 13.8993 62.6659 14.0641C62.2164 14.2289 61.7445 14.3113 61.2651 14.3038C60.6733 14.3038 60.1564 14.1989 59.722 13.9817C59.295 13.7794 58.9429 13.4498 58.7032 13.0378C58.5758 12.8056 58.4785 12.5659 58.4185 12.3112H65.9469C65.9619 12.1914 65.9694 12.0565 65.9843 11.9142C65.9993 11.7719 65.9993 11.6445 65.9993 11.5322C66.0143 10.461 65.7821 9.53959 65.3251 8.76803ZM59.5422 8.88039C59.9392 8.66316 60.3886 8.55079 60.8456 8.55828C61.295 8.55079 61.7445 8.66316 62.1415 8.88039C62.5086 9.09014 62.8082 9.40476 63.0105 9.7793C63.1528 10.049 63.2427 10.3336 63.2876 10.6258H58.3811C58.426 10.3336 58.5234 10.049 58.6582 9.7793C58.868 9.40476 59.1676 9.09014 59.5422 8.88039Z" fill="white" fill-opacity="0.85"/>
  <path fill-rule="evenodd" clip-rule="evenodd" d="M1.10118 16.3858V17.8091L1.47572 17.8166V16.3933H2.56936V12.9475C2.56936 12.3857 2.8765 11.8613 3.36341 11.5766L8.92166 8.36304L11.5884 6.80497C11.9854 6.58024 12.2326 6.15324 12.2326 5.69625V1.60625H11.139V0.182983H10.7644V1.60625H9.67075V4.04826C9.67075 4.61007 9.36362 5.13444 8.87671 5.41915L2.5619 9.06719V1.61375H1.46822V0.190482H1.09368V1.61375H0V16.3858H1.10118ZM10.7719 16.3858V17.8091H11.1465V16.3858H12.2401V11.6891C12.2326 10.9774 11.8506 10.3182 11.2363 9.9586L9.7082 9.07468L7.14631 10.5579L8.8842 11.5617C9.3786 11.8463 9.67824 12.3707 9.67824 12.9325V16.3858H10.7719Z" fill="url(#paint0_linear_1_608)" fill-opacity="0.96"/>
  <defs>
    <linearGradient id="paint0_linear_1_608" x1="6.11632" y1="0.182983" x2="6.11632" y2="17.8166" gradientUnits="userSpaceOnUse">
      <stop stop-color="#FFEB34"/>
      <stop offset="1" stop-color="#1EAF76"/>
    </linearGradient>
  </defs>
</svg>