<svg xmlns="http://www.w3.org/2000/svg" width="195" height="128" viewBox="0 0 195 128" fill="none">
<g filter="url(#filter0_d_1_365)">
<mask id="mask0_1_365" style="mask-type:alpha" maskUnits="userSpaceOnUse" x="1" y="11" width="92" height="116">
<path d="M86.0005 27.5754V11.3816H1.22133V126.643H92.6685V100.924C68.8541 65.202 78.3798 39.0063 86.0005 27.5754Z" fill="black"/>
</mask>
<g mask="url(#mask0_1_365)">
<g opacity="0.8">
<path d="M53.811 119.421C81.2781 119.421 103.545 97.1542 103.545 69.6871C103.545 42.22 81.2781 19.9536 53.811 19.9536C26.344 19.9536 4.0775 42.22 4.0775 69.6871C4.0775 97.1542 26.344 119.421 53.811 119.421Z" fill="#EFA100"/>
<path d="M53.811 115.017C81.2781 115.017 103.545 92.7504 103.545 65.2833C103.545 37.8162 81.2781 15.5498 53.811 15.5498C26.344 15.5498 4.0775 37.8162 4.0775 65.2833C4.0775 92.7504 26.344 115.017 53.811 115.017Z" fill="url(#paint0_linear_1_365)"/>
<path d="M53.8123 107.375C77.059 107.375 95.9042 88.5295 95.9042 65.2828C95.9042 42.036 77.059 23.1909 53.8123 23.1909C30.5656 23.1909 11.7204 42.036 11.7204 65.2828C11.7204 88.5295 30.5656 107.375 53.8123 107.375Z" fill="#BE7B16"/>
<path d="M53.812 107.376C76.3433 107.376 94.6086 89.1105 94.6086 66.5792C94.6086 44.0478 76.3433 25.7825 53.812 25.7825C31.2806 25.7825 13.0153 44.0478 13.0153 66.5792C13.0153 89.1105 31.2806 107.376 53.812 107.376Z" fill="url(#paint1_radial_1_365)"/>
<path d="M58.0037 66.5064C57.7286 66.5275 56.3034 66.6115 53.1284 66.6115C50.6028 66.6115 48.8089 66.5351 48.1785 66.5064C38.4144 66.0766 31.1262 64.3783 31.1262 62.3418C31.1262 60.3053 38.4144 58.6088 48.1785 58.1733V64.8138C48.8166 64.8597 50.6448 64.9686 53.1723 64.9686C56.2041 64.9686 57.7229 64.8425 57.9961 64.8176V58.179C67.741 58.6127 75.012 60.3129 75.012 62.3437C75.012 64.3744 67.7429 66.0728 57.9961 66.5064H58.0056H58.0037ZM58.0037 57.4912V51.5499H71.602V42.4889H34.5803V51.5499H48.1747V57.4893C37.1249 57.9975 28.8147 60.1849 28.8147 62.8098C28.8147 65.4347 37.1249 67.6202 48.1747 68.1303V87.1713H57.9999V68.1226C69.0248 67.6145 77.3217 65.429 77.3217 62.8079C77.3217 60.1868 69.0325 58.0013 57.9999 57.4912H58.0018H58.0037Z" fill="white"/>
<path d="M58.0037 66.5064C57.7286 66.5275 56.3034 66.6115 53.1284 66.6115C50.6028 66.6115 48.8089 66.5351 48.1785 66.5064C38.4144 66.0766 31.1262 64.3783 31.1262 62.3418C31.1262 60.3053 38.4144 58.6088 48.1785 58.1733V64.8138C48.8166 64.8597 50.6448 64.9686 53.1723 64.9686C56.2041 64.9686 57.7229 64.8425 57.9961 64.8176V58.179C67.741 58.6127 75.012 60.3129 75.012 62.3437C75.012 64.3744 67.7429 66.0728 57.9961 66.5064H58.0056H58.0037ZM58.0037 57.4912V51.5499H71.602V42.4889H34.5803V51.5499H48.1747V57.4893C37.1249 57.9975 28.8147 60.1849 28.8147 62.8098C28.8147 65.4347 37.1249 67.6202 48.1747 68.1303V87.1713H57.9999V68.1226C69.0248 67.6145 77.3217 65.429 77.3217 62.8079C77.3217 60.1868 69.0325 58.0013 57.9999 57.4912H58.0018H58.0037Z" fill="#BE7B16"/>
<path d="M59.3842 67.4255C59.1091 67.4465 57.6839 67.5306 54.5088 67.5306C51.9833 67.5306 50.1894 67.4542 49.559 67.4255C39.7949 66.9957 32.5067 65.2954 32.5067 63.2608C32.5067 61.2263 39.7949 59.5279 49.559 59.0923V65.7329C50.1971 65.7788 52.0253 65.8857 54.5528 65.8857C57.5846 65.8857 59.1034 65.7597 59.3765 65.7348V59.0962C69.1196 59.5298 76.3906 61.2301 76.3906 63.2608C76.3906 65.2916 69.1215 66.99 59.3765 67.4236H59.3861L59.3842 67.4255ZM59.3842 58.4103V52.469H72.9805V43.4079H35.9607V52.469H49.5552V58.4084C38.5054 58.9166 30.1951 61.1059 30.1951 63.7289C30.1951 66.3519 38.5054 68.5393 49.5552 69.0494V88.0904H59.3804V69.0436C70.4053 68.5355 78.7022 66.35 78.7022 63.7289C78.7022 61.1078 70.4129 58.9223 59.3804 58.4122H59.3823L59.3842 58.4103Z" fill="url(#paint2_linear_1_365)"/>
<g opacity="0.25">
<path d="M15.0854 96.0744C17.4582 99.0374 20.1633 101.723 23.1454 104.075L92.9898 34.2289C90.6381 31.2487 87.9539 28.5436 84.9909 26.1689L15.0854 96.0744Z" fill="url(#paint3_linear_1_365)"/>
<path d="M99.3945 44.8298L33.7473 110.477C32.1196 109.753 30.5378 108.945 29.0057 108.057L96.974 40.0901C97.8623 41.6203 98.6704 43.2022 99.3945 44.8317V44.8298Z" fill="url(#paint4_linear_1_365)"/>
</g>
</g>
</g>
<g opacity="0.8">
<path d="M134.11 119.092C165.407 119.092 190.779 93.7204 190.779 62.4227C190.779 31.1251 165.407 5.75335 134.11 5.75335C102.812 5.75335 77.4403 31.1251 77.4403 62.4227C77.4403 93.7204 102.812 119.092 134.11 119.092Z" fill="#EFA100"/>
<path d="M134.11 114.074C165.407 114.074 190.779 88.7026 190.779 57.405C190.779 26.1073 165.407 0.735596 134.11 0.735596C102.812 0.735596 77.4403 26.1073 77.4403 57.405C77.4403 88.7026 102.812 114.074 134.11 114.074Z" fill="url(#paint5_linear_1_365)"/>
<path d="M134.109 105.367C160.598 105.367 182.072 83.8935 182.072 57.4048C182.072 30.9161 160.598 9.44272 134.109 9.44272C107.621 9.44272 86.1474 30.9161 86.1474 57.4048C86.1474 83.8935 107.621 105.367 134.109 105.367Z" fill="#BE7B16"/>
<path d="M134.107 105.367C159.781 105.367 180.593 84.5542 180.593 58.8806C180.593 33.207 159.781 12.3944 134.107 12.3944C108.433 12.3944 87.6209 33.207 87.6209 58.8806C87.6209 84.5542 108.433 105.367 134.107 105.367Z" fill="url(#paint6_radial_1_365)"/>
<path d="M138.887 58.7981C138.573 58.822 136.949 58.9178 133.331 58.9178C130.454 58.9178 128.41 58.8307 127.691 58.7981C116.565 58.3083 108.261 56.3731 108.261 54.0526C108.261 51.7321 116.565 49.7991 127.691 49.3028V56.8694C128.418 56.9217 130.501 57.0457 133.381 57.0457C136.836 57.0457 138.567 56.9021 138.878 56.8738V49.3093C149.982 49.8034 158.267 51.7408 158.267 54.0548C158.267 56.3687 149.984 58.304 138.878 58.7981H138.889H138.887ZM138.887 48.5256V41.7557H154.381V31.431H112.196V41.7557H127.687V48.5235C115.096 49.1025 105.627 51.595 105.627 54.5859C105.627 57.5769 115.096 60.0672 127.687 60.6484V82.3448H138.882V60.6397C151.445 60.0606 160.899 57.5704 160.899 54.5837C160.899 51.5971 151.453 49.1068 138.882 48.5256H138.884H138.887Z" fill="white"/>
<path d="M138.887 58.7981C138.573 58.822 136.949 58.9178 133.331 58.9178C130.454 58.9178 128.41 58.8307 127.691 58.7981C116.565 58.3083 108.261 56.3731 108.261 54.0526C108.261 51.7321 116.565 49.7991 127.691 49.3028V56.8694C128.418 56.9217 130.501 57.0457 133.381 57.0457C136.836 57.0457 138.567 56.9021 138.878 56.8738V49.3093C149.982 49.8034 158.267 51.7408 158.267 54.0548C158.267 56.3687 149.984 58.304 138.878 58.7981H138.889H138.887ZM138.887 48.5256V41.7557H154.381V31.431H112.196V41.7557H127.687V48.5235C115.096 49.1025 105.627 51.595 105.627 54.5859C105.627 57.5769 115.096 60.0672 127.687 60.6484V82.3448H138.882V60.6397C151.445 60.0606 160.899 57.5704 160.899 54.5837C160.899 51.5971 151.453 49.1068 138.882 48.5256H138.884H138.887Z" fill="#BE7B16"/>
<path d="M140.461 59.8456C140.147 59.8695 138.523 59.9653 134.905 59.9653C132.028 59.9653 129.983 59.8782 129.265 59.8456C118.139 59.3558 109.835 57.4184 109.835 55.1001C109.835 52.7817 118.139 50.8465 129.265 50.3502V57.9169C129.992 57.9691 132.075 58.091 134.955 58.091C138.41 58.091 140.141 57.9474 140.452 57.9191V50.3546C151.554 50.8487 159.839 52.7861 159.839 55.1001C159.839 57.414 151.556 59.3492 140.452 59.8434H140.463L140.461 59.8456ZM140.461 49.5731V42.8032H155.953V32.4785H113.77V42.8032H129.261V49.5709C116.67 50.15 107.201 52.6446 107.201 55.6334C107.201 58.6222 116.67 61.1146 129.261 61.6959V83.3923H140.456V61.6893C153.019 61.1103 162.473 58.62 162.473 55.6334C162.473 52.6468 153.027 50.1565 140.456 49.5753H140.458L140.461 49.5731Z" fill="url(#paint7_linear_1_365)"/>
<g opacity="0.25">
<path d="M89.9825 92.49C92.6861 95.8663 95.7685 98.9269 99.1666 101.607L178.751 22.0195C176.072 18.6237 173.013 15.5413 169.637 12.8355L89.9825 92.49Z" fill="url(#paint8_linear_1_365)"/>
<path d="M186.05 34.0988L111.248 108.901C109.393 108.076 107.591 107.155 105.845 106.143L183.292 28.6981C184.305 30.4417 185.225 32.2441 186.05 34.101V34.0988Z" fill="url(#paint9_linear_1_365)"/>
</g>
</g>
</g>
<defs>
<filter id="filter0_d_1_365" x="0.267203" y="0.735596" width="194.322" height="126.306" filterUnits="userSpaceOnUse" color-interpolation-filters="sRGB">
<feFlood flood-opacity="0" result="BackgroundImageFix"/>
<feColorMatrix in="SourceAlpha" type="matrix" values="0 0 0 0 0 0 0 0 0 0 0 0 0 0 0 0 0 0 127 0" result="hardAlpha"/>
<feOffset dy="3.8103"/>
<feGaussianBlur stdDeviation="1.90515"/>
<feComposite in2="hardAlpha" operator="out"/>
<feColorMatrix type="matrix" values="0 0 0 0 0 0 0 0 0 0 0 0 0 0 0 0 0 0 0.1 0"/>
<feBlend mode="normal" in2="BackgroundImageFix" result="effect1_dropShadow_1_365"/>
<feBlend mode="normal" in="SourceGraphic" in2="effect1_dropShadow_1_365" result="shape"/>
</filter>
<linearGradient id="paint0_linear_1_365" x1="53.811" y1="115.017" x2="53.811" y2="18.5281" gradientUnits="userSpaceOnUse">
<stop stop-color="#FFB800"/>
<stop offset="1" stop-color="#FFD836"/>
</linearGradient>
<radialGradient id="paint1_radial_1_365" cx="0" cy="0" r="1" gradientUnits="userSpaceOnUse" gradientTransform="translate(77.9268 105.139) rotate(-125.36) scale(98.4641 98.4641)">
<stop stop-color="#FFC701"/>
<stop offset="1" stop-color="#F7AA00" stop-opacity="0"/>
</radialGradient>
<linearGradient id="paint2_linear_1_365" x1="54.4477" y1="88.0884" x2="54.4477" y2="44.7452" gradientUnits="userSpaceOnUse">
<stop stop-color="#FFB800"/>
<stop offset="1" stop-color="#FFD836"/>
</linearGradient>
<linearGradient id="paint3_linear_1_365" x1="54.0366" y1="114.741" x2="54.0366" y2="18.2541" gradientUnits="userSpaceOnUse">
<stop stop-color="#FFB800"/>
<stop offset="1" stop-color="#FFD836"/>
</linearGradient>
<linearGradient id="paint4_linear_1_365" x1="64.201" y1="114.741" x2="64.201" y2="18.2542" gradientUnits="userSpaceOnUse">
<stop stop-color="#FFB800"/>
<stop offset="1" stop-color="#FFD836"/>
</linearGradient>
<linearGradient id="paint5_linear_1_365" x1="134.11" y1="114.074" x2="134.11" y2="4.12927" gradientUnits="userSpaceOnUse">
<stop stop-color="#FFB800"/>
<stop offset="1" stop-color="#FFD836"/>
</linearGradient>
<radialGradient id="paint6_radial_1_365" cx="0" cy="0" r="1" gradientUnits="userSpaceOnUse" gradientTransform="translate(161.585 102.818) rotate(-125.36) scale(112.196 112.196)">
<stop stop-color="#FFC701"/>
<stop offset="1" stop-color="#F7AA00" stop-opacity="0"/>
</radialGradient>
<linearGradient id="paint7_linear_1_365" x1="134.836" y1="83.3901" x2="134.836" y2="34.0022" gradientUnits="userSpaceOnUse">
<stop stop-color="#FFB800"/>
<stop offset="1" stop-color="#FFD836"/>
</linearGradient>
<linearGradient id="paint8_linear_1_365" x1="134.366" y1="113.76" x2="134.366" y2="3.81686" gradientUnits="userSpaceOnUse">
<stop stop-color="#FFB800"/>
<stop offset="1" stop-color="#FFD836"/>
</linearGradient>
<linearGradient id="paint9_linear_1_365" x1="145.949" y1="113.76" x2="145.949" y2="3.81691" gradientUnits="userSpaceOnUse">
<stop stop-color="#FFB800"/>
<stop offset="1" stop-color="#FFD836"/>
</linearGradient>
</defs>
</svg>